<svg width="150" height="150" viewBox="0 0 150 150" fill="none" xmlns="http://www.w3.org/2000/svg">
<g id="Illustration/Food">
<g id="Group">
<path id="Blob" fill-rule="evenodd" clip-rule="evenodd" d="M82.2318 13C117.3 13 124.683 61.5995 124.826 61.9994C124.974 62.4114 125.113 62.8355 125.248 63.2471C125.522 64.083 125.873 64.8878 126.147 65.7182C126.314 66.2248 126.622 66.6444 126.828 67.1228C127.228 68.0368 127.718 68.9089 128.291 69.7261C128.527 70.0498 128.713 70.4075 128.842 70.7869C128.933 71.0772 129.232 71.1547 129.362 71.411C129.571 71.8258 129.85 72.2049 130.092 72.6031C130.147 72.7432 130.273 72.8428 130.423 72.8636L130.376 73.2591C130.463 73.4015 130.493 73.2089 130.584 73.2429C130.699 73.3971 130.863 73.5343 130.879 73.7692C130.894 73.99 131.152 74.0108 131.24 74.2034C131.434 74.6216 131.972 74.8348 131.964 75.3835C132.35 75.6262 132.541 76.043 132.832 76.37C132.982 76.5206 133.073 76.7188 133.091 76.9293L133.093 76.9781C133.091 77.1874 133.496 77.1404 133.387 77.426C134.005 77.8903 134.166 78.649 134.493 79.2775C135.017 80.2861 135.621 81.2605 135.977 82.3649C136.155 82.9173 136.501 83.4398 136.693 83.9992C137.125 85.2567 137.643 86.4867 137.924 87.7961C138.04 88.3371 138.277 88.8523 138.387 89.3947L138.515 90.0217C138.706 90.9625 138.886 91.9055 139.006 92.8589C139.067 93.074 139.067 93.302 139.006 93.5171C138.902 93.7618 139.177 93.9186 139.199 94.1642C139.226 94.4554 139.11 94.7313 139.193 95.0406C139.24 95.2109 139.194 95.4846 139.247 95.6823C139.419 96.3252 139.201 96.9881 139.388 97.6266C139.418 97.8734 139.392 98.1236 139.312 98.3591C139.182 99.1451 139.42 99.9478 139.183 100.715C139.072 101.094 139.051 101.492 139.121 101.88L139.15 102.029C139.171 102.14 139.185 102.248 139.131 102.322C138.915 102.617 138.97 102.964 138.928 103.287L138.919 103.34C138.857 103.701 138.921 104.08 138.812 104.447C138.663 104.807 138.58 105.191 138.565 105.58C138.621 106.24 138.398 106.833 138.262 107.445C138.194 107.751 138.25 108.115 137.914 108.343C137.742 108.459 138.147 108.684 137.901 108.854L137.873 108.871C137.693 108.973 137.7 109.137 137.751 109.333C137.798 109.513 137.484 109.637 137.574 109.82C137.663 110.004 137.704 110.271 137.599 110.305C137.337 110.391 137.604 110.676 137.384 110.73C137.362 110.742 137.347 110.763 137.343 110.787C137.268 111.476 136.824 112.042 136.714 112.731C136.631 113.143 136.471 113.535 136.242 113.887C136.052 114.227 135.891 114.581 135.76 114.948C135.514 115.564 135.093 116.079 134.855 116.692C134.791 116.858 134.361 116.802 134.58 117.143C134.329 117.231 134.405 117.491 134.304 117.653C134.193 117.776 134.064 117.881 133.921 117.964C133.828 118.329 133.651 118.667 133.403 118.95C132.969 119.584 132.497 120.189 131.987 120.763L131.566 121.235C131.003 121.864 130.422 122.478 129.681 122.912C129.49 123.023 129.577 123.234 129.42 123.349C128.511 124.02 127.673 124.782 126.638 125.29C126.206 125.504 125.834 125.882 125.392 126.104C124.553 126.525 123.774 127.049 122.877 127.377L122.718 127.433C122.146 127.623 121.584 127.911 121.004 128.12C119.812 128.588 118.569 128.911 117.3 129.082L116.517 129.169C115.821 129.246 115.125 129.317 114.422 129.336C114.089 129.345 113.77 129.24 113.466 129.278C113.169 129.315 112.868 129.291 112.581 129.207C112.355 129.143 112.163 129.338 111.919 129.233C111.732 129.116 111.5 129.099 111.298 129.184L111.258 129.203C111.142 129.27 110.915 129.146 110.739 129.106C110.482 129.07 110.229 129.008 109.985 128.92C109.796 128.832 109.555 129.113 109.423 128.815C109.184 129 92.9375 125.139 78.0133 132.979C76.7979 133.785 75.3758 134.138 74.0771 134.764C73.4734 135.055 72.7947 135.188 72.1448 135.387L72.006 135.431C70.8589 135.801 69.6824 136.054 68.5077 136.319C67.4284 136.552 66.3349 136.715 65.2341 136.805C64.4428 136.877 63.6477 136.91 62.8582 136.996C62.5381 137.031 62.2243 136.805 61.911 136.999C61.2072 136.808 60.4683 137.04 59.7664 136.824C59.2995 136.962 58.8609 136.791 58.4318 136.664C58.1044 136.567 57.7958 136.769 57.4649 136.626C57.1637 136.469 56.8263 136.394 56.4868 136.408C55.9233 136.495 55.4328 136.288 54.9194 136.179C53.7267 135.925 52.5382 135.65 51.354 135.355C50.9661 135.258 50.5305 135.295 50.1982 134.999C49.9068 134.739 49.4468 134.902 49.1603 134.594C49.0558 134.483 48.9225 134.699 48.765 134.615C48.458 134.45 48.0633 134.559 47.7763 134.261C47.5638 134.041 47.1626 134.19 46.9273 133.924L46.8962 133.885C46.7574 133.692 46.3909 134.147 46.2824 133.717C45.8445 133.684 45.4815 133.445 45.0915 133.281C44.7684 133.146 44.3871 133.223 44.0956 132.941C43.8471 132.702 43.3776 132.878 43.1624 132.519C42.6359 132.514 42.2477 132.12 41.7459 132.017C41.365 131.917 40.9993 131.766 40.6585 131.569C40.1182 131.291 39.5695 131.029 39.0168 130.781C38.8185 130.689 38.6254 130.586 38.4385 130.472C38.3337 130.411 38.3083 130.275 38.1585 130.242C37.2107 130.032 36.4136 129.48 35.6041 128.997C35.1424 128.758 34.7007 128.483 34.2831 128.174L34.1448 128.07C34.0226 127.965 33.7688 127.913 33.6613 127.767C33.3617 127.36 32.9136 127.161 32.5073 126.917L32.44 126.876C32.2111 126.741 32.0031 126.574 31.8224 126.379C31.7882 126.342 31.7742 126.261 31.7379 126.252C31.0635 126.086 30.661 125.529 30.1453 125.139C29.7018 124.805 29.3138 124.397 28.877 124.056L28.7108 123.931C27.6886 123.2 16.5042 110.893 15.2369 108.769L14.8742 108.162C14.512 107.553 14.154 106.939 13.8244 106.314L13.5437 105.781C13.2635 105.247 12.9876 104.71 12.7437 104.163L12.4175 103.433C11.7665 101.973 11.1294 100.505 10.5865 98.9966C10.1024 97.6512 9.70155 96.2837 9.29691 94.915C9.03773 94.0362 8.81872 93.1535 8.63371 92.2581C8.33811 90.8272 8.07453 89.3905 7.84296 87.948C7.62697 86.5897 7.70687 85.2116 7.41844 83.8688C7.6074 83.0441 7.25998 82.2073 7.4757 81.3835C7.31568 80.9769 7.45639 80.5547 7.47143 80.1539C7.48686 79.74 7.39402 79.3064 7.5593 78.887C7.63501 78.6965 7.45999 78.4675 7.55482 78.2348C7.65893 78.0412 7.67094 77.8113 7.58758 77.6079C7.8686 77.4787 7.53364 77.2798 7.65034 77.0958C7.77616 76.8961 7.83174 76.6602 7.8083 76.4254C7.72647 75.8999 8.02916 75.4147 7.97602 74.94C7.92061 74.4545 8.16037 74.043 8.15961 73.6079L8.15652 73.526C8.11514 72.9548 8.52348 72.5247 8.5371 71.9843C8.53839 71.9369 8.65015 71.8933 8.71143 71.8463C8.69177 71.7248 8.55735 71.7523 8.46199 71.6578C8.61422 71.5257 8.74741 71.3731 8.85779 71.2046C8.94134 70.9735 9.00068 70.7343 9.03485 70.491L8.64777 69.9916C8.7906 69.706 8.74081 69.4462 8.93152 69.2221C9.01452 69.1243 8.96824 68.8252 8.97848 68.6187C8.99199 68.3474 9.34058 68.1858 9.25649 67.9716C9.19162 67.7252 9.21264 67.4641 9.31608 67.2312C9.81478 65.0326 10.3228 62.8362 10.84 60.6418C10.8944 60.4066 10.8471 60.1108 11.1365 59.973C10.8203 59.6465 11.317 59.5325 11.3247 59.2736C11.365 59.0317 11.4582 58.8016 11.5977 58.5997C11.7953 58.2219 11.8135 57.7531 11.926 57.3274C11.9556 57.0264 12.0696 56.7399 12.2549 56.5007C12.4476 56.3011 12.4198 55.9536 12.5649 55.6735C12.7699 55.335 12.9287 54.9707 13.0372 54.5903C13.0699 54.3169 13.1789 54.0582 13.3518 53.8437C13.5052 53.6743 13.3792 53.3235 13.6775 53.1956C13.7611 52.7039 14.0547 52.309 14.2721 51.8782L14.3118 51.797C14.8457 50.6883 15.4458 49.6127 16.1088 48.5759C16.6597 47.7032 17.1956 46.8213 17.7549 45.9541C17.9368 45.6743 18.1303 45.3953 18.3303 45.1296C19.0253 44.1522 19.7739 43.214 20.5727 42.3192C21.3033 41.545 21.9997 40.736 22.7667 39.9916C23.1745 39.5956 23.5082 39.1094 23.9041 38.6887C24.837 37.6959 25.7951 36.7299 26.8027 35.8131C27.6537 34.9724 28.5843 34.216 29.5815 33.5545C29.8526 33.3897 30.0756 33.148 30.3373 32.9655C30.655 32.7905 30.9598 32.5932 31.2495 32.375C31.5865 32.0581 32 31.8565 32.3405 31.5628C32.6048 31.335 33.0275 31.4649 33.2166 31.0551C33.3544 30.7569 33.8704 30.8661 34.0442 30.5177C34.5205 30.5019 34.7429 30.0407 35.1755 29.8891L35.2332 29.8711C35.6889 29.7468 36.0778 29.3789 36.496 29.1181C36.8992 28.8325 37.3212 28.5743 37.759 28.345C38.5811 27.9748 39.2906 27.4108 40.094 27.0285C40.8601 26.6644 41.5495 26.1315 42.385 25.9285C42.5825 25.8807 42.5457 25.7067 42.6815 25.6324C42.8229 25.5547 42.9777 25.6062 43.1054 25.5165C43.6338 25.1718 47.1638 13 82.2318 13Z" fill="#FF6F61"/>
<path id="Shape" fill-rule="evenodd" clip-rule="evenodd" d="M42.6747 39.0898C41.5016 39.7516 39.7841 38.9074 39.5915 37.5744C40.3396 37.5344 41.1394 37.4761 41.7308 37.0162C42.3223 36.5562 42.5294 35.5377 41.9365 35.0797C37.1097 34.4869 32.4142 32.8469 28.2679 30.3057C31.0991 29.4526 33.5352 27.6531 36.1945 26.3602C38.8537 25.0673 42.0701 24.3026 44.7223 25.61C47.3265 26.8937 50.3245 25.2562 53.0421 24.234C57.7676 22.4566 63.1862 22.6056 67.8069 24.6401C71.178 26.1244 76.8905 23.7151 80.5322 23.1626C86.4809 22.26 92.2881 26.4293 98.2614 25.7073C97.6206 26.131 96.9798 26.5547 96.339 26.9784C96.9701 26.9207 97.6045 26.8974 98.2382 26.9085C93.281 29.2807 88.3237 31.6529 83.3665 34.0251C84.6223 34.533 85.8781 35.041 87.1339 35.549C86.8387 36.4954 85.7804 37.1346 84.8053 36.9554C85.5899 37.5798 86.3745 38.2042 87.1591 38.8286C86.3217 39.4234 85.2616 39.6967 84.2409 39.581C85.328 40.2828 86.2252 41.2758 86.8136 42.4282C89.4031 41.5655 92.2397 41.4593 94.8864 42.1259C92.4951 42.4394 90.1037 42.7529 87.7124 43.0664C88.0735 44.0497 88.4346 45.0329 88.7957 46.0162C91.9198 45.3012 95.2398 45.4637 98.2792 46.4805C95.2654 46.5572 92.2516 46.6339 89.2378 46.7106C89.1673 50.709 87.1767 54.7866 83.6814 56.7297C80.1861 58.6728 73.2017 60.4006 70.8882 54.743C69.1171 55.9054 69.2425 58.6995 70.5052 60.4006C71.768 62.1016 73.7743 63.043 75.5888 64.1366C81.6159 67.7689 86.1618 73.7843 88.0108 80.574C89.8599 87.3638 88.9919 94.8536 85.6388 101.04C90.1595 101.743 94.3602 104.316 97.0406 108.023C102.813 105.337 106.01 99.2091 110.431 94.6283C115.461 89.4175 122.404 86.0961 129.618 85.4502C133.885 85.068 138.753 85.8909 141.242 89.3785C144.478 93.9116 141.495 100.96 136.33 103.044C132.235 104.696 127.617 103.865 123.213 104.177C114.357 104.804 106.583 110.026 99.2803 115.076C98.9825 116.711 99.5802 118.481 100.808 119.6C103.42 116.9 106.715 114.866 110.299 113.741C111.624 113.325 113.61 113.433 113.757 114.814C113.813 115.337 113.538 115.832 113.26 116.278C110.87 120.109 107.501 123.323 103.562 125.529C101.482 126.694 99.1587 127.596 96.7792 127.463C94.3997 127.33 91.9766 125.956 91.1684 123.714C90.794 122.675 90.7534 121.473 90.0441 120.626C88.8442 119.194 86.5392 119.623 84.8573 120.436C83.1753 121.25 81.3823 122.356 79.5774 121.873C75.0654 120.667 70.3697 120.149 65.7031 120.344C59.7603 120.593 53.705 121.977 47.9472 120.484C46.0237 119.986 43.8713 119.199 42.1673 120.222C38.8093 122.236 41.0743 128.685 37.6292 130.546C36.409 131.206 34.9135 130.963 33.5672 130.628C27.6181 129.152 22.0379 126.211 17.4564 122.139C17.0149 121.747 16.56 121.306 16.4362 120.728C16.065 118.996 18.6225 118.275 20.3651 118.596C23.3254 119.14 26.1566 120.374 28.5708 122.172C29.4171 122.802 30.7048 122.067 31.0634 121.075C31.4219 120.082 31.1752 118.99 31.0353 117.944C30.1514 111.338 34.2955 104.393 40.5286 102.034C36.7548 96.5273 35.3198 89.4712 36.6429 82.9276C37.9659 76.384 42.0294 70.4396 47.6462 66.8312C49.89 65.3897 52.468 64.2106 53.898 61.9595C55.328 59.7083 54.7003 55.9316 52.0844 55.4126C49.6196 58.082 45.6105 59.2111 42.1148 58.2203C38.6192 57.2295 35.7988 54.1647 35.1013 50.5989C32.7812 51.3825 30.461 52.166 28.1409 52.9496C30.2002 51.3625 32.639 50.2713 35.1946 49.7934C35.4399 48.7307 35.6852 47.6679 35.9305 46.6052C31.5033 46.3196 27.0138 47.0482 22.9042 48.7192C25.4331 46.8156 28.6507 45.8483 31.81 46.0418C35.0234 46.2387 38.2899 44.6664 40.1406 42.0321C38.9827 41.625 37.9421 40.8901 37.1711 39.9351C38.352 39.2941 39.7822 39.128 41.0786 39.4812M65.3858 108.791C65.1751 108.996 64.9484 109.24 64.9632 109.534C64.9781 109.827 65.4188 110.047 65.5708 109.795C66.4004 108.42 67.8432 107.432 69.4246 107.155C71.0059 106.879 72.6986 107.318 73.9457 108.329C74.3808 108.681 74.7693 109.103 75.2664 109.361C75.4454 109.454 75.7516 109.456 75.7591 109.255C75.7615 109.189 75.7236 109.128 75.6865 109.074C74.7909 107.754 73.4518 106.74 71.938 106.237C70.6111 105.796 69.0736 105.769 67.8869 106.508C67.4559 106.776 67.0884 107.134 66.7245 107.488C66.2783 107.922 65.8321 108.357 65.3858 108.791ZM58.951 106.389C57.2331 106.162 55.3835 106.739 54.2395 108.04C54.0378 108.27 53.8546 108.528 53.7852 108.825C53.7158 109.123 53.781 109.467 54.0115 109.667C54.8964 108.293 56.469 107.386 58.1022 107.309C59.7354 107.232 61.3864 107.986 62.3968 109.272C62.5548 109.473 62.7055 109.693 62.9298 109.815C63.1541 109.938 63.4805 109.922 63.617 109.706C63.78 109.448 63.5828 109.118 63.3817 108.888C62.2403 107.584 60.669 106.616 58.951 106.389ZM71.069 104.63C71.0424 104.921 71.4261 105.102 71.7019 105.007C71.9777 104.911 72.1605 104.657 72.3451 104.432C73.8809 102.553 76.8053 101.987 78.9309 103.157C79.2097 102.922 79.2256 102.47 79.039 102.157C78.8525 101.843 78.5118 101.65 78.1642 101.539C77.4113 101.299 76.5938 101.381 75.819 101.537C73.9854 101.908 72.1331 102.778 71.1691 104.381C71.1225 104.458 71.0772 104.54 71.069 104.63ZM63.86 110.724C63.1065 110.777 62.3688 110.976 61.6634 111.246C60.6883 111.619 59.7283 112.163 59.1575 113.037C59.9945 113.274 60.7969 112.65 61.5615 112.235C63.2767 111.304 65.5016 111.401 67.13 112.476C67.641 112.813 68.2974 113.249 68.7956 112.893C67.6301 111.432 65.7245 110.595 63.86 110.724ZM66.9561 110.253C67.5277 109.955 67.9847 109.472 68.5517 109.165C69.3326 108.743 70.3053 108.694 71.1245 109.036C71.5693 109.222 71.9631 109.512 72.4015 109.713C72.8398 109.914 73.3618 110.018 73.7985 109.814C73.847 109.791 73.8971 109.761 73.9176 109.712C73.9508 109.631 73.8918 109.545 73.8345 109.479C72.8574 108.364 71.3263 107.76 69.8507 107.907C68.3752 108.054 66.9937 108.949 66.2563 110.236C66.4102 110.439 66.7305 110.371 66.9561 110.253ZM55.5085 110.306C55.8148 110.132 56.0544 109.863 56.3344 109.649C56.8943 109.222 57.6238 109.025 58.3236 109.106C59.1035 109.197 59.8067 109.609 60.4517 110.057C60.6404 110.188 60.8328 110.326 61.0565 110.378C61.2802 110.43 61.5466 110.373 61.6732 110.182C61.7983 109.992 61.7481 109.728 61.6141 109.544C61.4802 109.361 61.2791 109.24 61.0831 109.125C60.2859 108.658 59.4434 108.19 58.5205 108.143C57.3668 108.083 56.2944 108.685 55.2966 109.267C54.892 109.503 54.4273 109.861 54.513 110.321C54.79 110.539 55.2023 110.481 55.5085 110.306ZM60.7044 105.834C60.9126 106.104 61.3205 105.815 61.5504 105.564C62.2587 104.79 63.2796 104.311 64.3275 104.26C65.3754 104.21 66.4376 104.589 67.2167 105.292C67.4133 105.469 67.6205 105.678 67.885 105.685C68.1495 105.692 68.3879 105.323 68.1781 105.162C67.0548 104.299 65.7478 103.594 64.3344 103.501C62.9209 103.407 61.3976 104.042 60.7432 105.298C60.6555 105.466 60.5883 105.684 60.7044 105.834ZM73.2017 105.598C73.3882 105.519 73.5249 105.359 73.6677 105.215C74.7553 104.121 76.5977 103.876 77.933 104.649C78.267 104.842 78.7692 105.055 78.9633 104.722C79.1251 104.444 78.8367 104.12 78.5616 103.953C76.7656 102.864 74.2053 103.279 72.8451 104.879C72.7066 105.042 72.5736 105.266 72.6688 105.458C72.7589 105.639 73.0151 105.677 73.2017 105.598ZM74.1945 105.701C74.1174 105.765 74.0404 105.838 74.0079 105.933C73.9171 106.199 74.2403 106.448 74.5204 106.425C74.8004 106.403 75.0386 106.223 75.2927 106.103C75.9123 105.811 76.6569 105.881 77.2858 106.152C77.5347 106.26 77.7757 106.398 78.0437 106.439C78.3117 106.479 78.6244 106.39 78.7464 106.148C77.6806 104.827 75.4972 104.613 74.1945 105.701ZM57.3428 105.194C57.5018 105.269 57.7188 105.254 57.8212 105.111C57.9604 104.917 57.8113 104.653 57.6635 104.465C57.1633 103.829 56.6252 103.203 55.9377 102.776C55.2501 102.349 54.3842 102.144 53.6184 102.406C53.5405 102.688 53.8925 102.881 54.1696 102.977C55.2362 103.349 56.2042 104 56.9513 104.847C57.0675 104.979 57.1837 105.119 57.3428 105.194ZM66.7684 105.904C65.5097 105.101 63.7915 105.087 62.5198 105.869C62.2988 106.005 62.0716 106.196 62.0545 106.455C62.0373 106.713 62.3889 106.954 62.5632 106.762C63.2658 105.987 64.5495 105.826 65.4212 106.404C65.8493 106.687 66.464 106.649 66.8531 106.314C67.0368 106.295 66.9241 106.003 66.7684 105.904ZM75.925 110.247C74.1364 110.126 72.4722 111.179 71.174 112.415C71.2684 112.633 71.5908 112.575 71.8092 112.481C73.2876 111.841 74.766 111.201 76.2445 110.561C76.3556 110.414 76.1089 110.26 75.925 110.247ZM58.903 111.044C59.1229 111.168 59.3383 111.338 59.5912 111.338C59.844 111.338 60.0947 111.034 59.9343 110.839C59.4293 110.223 58.6355 109.855 57.8393 109.867C57.043 109.879 56.2609 110.271 55.7749 110.902C55.8348 111.131 56.1154 111.237 56.3499 111.203C56.5844 111.169 56.791 111.036 57.0084 110.942C57.6099 110.682 58.3327 110.72 58.903 111.044ZM67.7719 110.876C67.7518 111.052 67.9514 111.186 68.1283 111.177C68.3053 111.167 68.4607 111.064 68.6159 110.978C69.2674 110.619 70.0698 110.546 70.7757 110.78C71.2281 110.93 71.7925 111.176 72.119 110.829C72.1476 110.63 71.9485 110.48 71.7716 110.386C71.1375 110.049 70.4395 109.794 69.7213 109.801C69.0031 109.808 68.262 110.109 67.852 110.699C67.8146 110.752 67.7793 110.811 67.7719 110.876ZM66.4369 103.148C67.1762 103.413 67.8648 103.818 68.4547 104.337C68.6979 104.55 68.9307 104.787 69.2257 104.92C69.5208 105.054 69.9037 105.057 70.1346 104.83C69.6237 104.438 69.204 103.928 68.9178 103.351C68.7636 103.041 68.3526 102.984 68.0061 102.967C67.4998 102.942 66.9935 102.917 66.4871 102.893C66.4337 102.965 66.4147 103.061 66.4369 103.148ZM59.8329 104.926C60.0944 104.682 60.2873 104.374 60.5288 104.11C60.9033 103.701 61.3966 103.402 61.9326 103.259C62.1638 103.197 62.4678 103.079 62.4329 102.842C61.7778 102.728 61.0304 102.636 60.5138 103.055C59.7902 103.641 59.2166 104.411 58.8616 105.272C59.2109 105.349 59.5715 105.17 59.8329 104.926ZM54.0099 104.629C54.4794 104.935 54.9488 105.241 55.4183 105.547C55.617 105.676 55.8708 105.809 56.0769 105.692C56.2683 105.583 56.2975 105.302 56.1978 105.106C56.0981 104.91 55.9079 104.779 55.7253 104.656C55.3431 104.398 54.9609 104.141 54.5787 103.884C54.2586 103.668 53.7372 103.496 53.563 103.841C53.4129 104.137 53.7311 104.448 54.0099 104.629ZM63.8945 108.306C64.0741 108.485 64.3258 108.677 64.554 108.568C64.6581 108.518 64.7251 108.416 64.7868 108.318C64.9903 107.997 65.1938 107.675 65.3974 107.353C64.8645 106.761 63.8185 106.745 63.2679 107.321C63.2257 107.365 63.1844 107.416 63.1769 107.477C63.1649 107.573 63.2393 107.656 63.3082 107.725C63.5036 107.919 63.699 108.112 63.8945 108.306ZM55.6793 112.906C56.061 113.04 56.5116 113.08 56.8484 112.855C56.3415 112.272 55.7473 111.765 55.0919 111.356C54.906 111.24 54.6963 111.128 54.4794 111.159C54.2624 111.19 54.0703 111.437 54.1754 111.629C54.4979 112.219 55.0445 112.683 55.6793 112.906ZM76.6256 108.22C76.8061 108.002 76.9865 107.784 77.167 107.566C77.2291 107.491 77.2947 107.406 77.2909 107.309C77.2859 107.185 77.1727 107.096 77.0649 107.035C76.6899 106.825 76.2472 106.737 75.8201 106.788C75.6568 106.808 75.4867 106.852 75.3718 106.97C75.257 107.088 75.2239 107.297 75.3395 107.414C75.6014 107.679 75.8633 107.945 76.1252 108.21C76.2108 108.297 76.3193 108.391 76.4383 108.365C76.517 108.348 76.5743 108.282 76.6256 108.22ZM57.7987 103.51C57.9605 103.684 58.1638 103.863 58.4008 103.843C58.909 103.801 59.0728 102.924 59.5805 102.972C59.7168 102.747 59.3448 102.568 59.0821 102.563C58.4021 102.553 57.7222 102.542 57.0422 102.531C57.2642 102.879 57.5177 103.207 57.7987 103.51ZM61.9981 113.067C63.4126 113.061 64.827 113.055 66.2414 113.049C66.1174 112.769 65.7856 112.655 65.4862 112.593C64.5047 112.39 63.4754 112.421 62.508 112.683C62.2914 112.742 62.0441 112.847 61.9981 113.067ZM70.7315 111.579C70.2635 111.6 69.7955 111.621 69.3275 111.642C69.1765 111.649 68.9826 111.693 68.9639 111.843C68.9556 111.91 68.9893 111.974 69.0219 112.033C69.1456 112.258 69.2773 112.492 69.4913 112.633C69.7052 112.775 70.0272 112.789 70.1937 112.594C70.3213 112.444 70.3314 112.211 70.4835 112.086C70.5815 112.006 70.7175 111.99 70.826 111.924C70.9344 111.858 71.0035 111.688 70.9029 111.611C70.8558 111.575 70.7909 111.576 70.7315 111.579ZM58.6139 112.361C58.7389 112.166 58.6207 111.89 58.4258 111.765C58.231 111.639 57.9875 111.624 57.7561 111.613C57.5004 111.6 57.1638 111.647 57.118 111.899C57.0961 112.019 57.1572 112.137 57.2163 112.243C57.3897 112.556 57.6449 112.915 58.0012 112.88C58.2773 112.853 58.4642 112.595 58.6139 112.361ZM77.1009 109.555C77.3109 109.572 77.4992 109.43 77.6465 109.279C78.096 108.82 78.3818 108.203 78.4422 107.563C78.2935 107.468 78.1115 107.616 77.9976 107.751C77.6149 108.203 77.2322 108.656 76.8495 109.108C76.7135 109.269 76.8909 109.538 77.1009 109.555ZM53.6906 106.349C53.904 106.616 54.3157 106.7 54.6164 106.537C54.7704 106.454 54.9004 106.289 54.8698 106.117C54.8426 105.963 54.7029 105.859 54.574 105.771C54.388 105.645 54.2019 105.518 54.0158 105.391C53.9589 105.352 53.8936 105.311 53.8262 105.325C53.7798 105.335 53.7425 105.369 53.7113 105.405C53.4864 105.662 53.4772 106.082 53.6906 106.349ZM70.2182 103.53C70.4417 103.718 70.7729 103.524 70.9947 103.335C71.2353 103.129 71.476 102.923 71.7166 102.718C71.5804 102.588 71.3628 102.617 71.1783 102.655C70.6425 102.766 70.1067 102.877 69.5709 102.987C69.7867 103.168 70.0025 103.349 70.2182 103.53ZM78.6322 100.902C78.7671 101.07 79.0511 101.034 79.2058 100.884C79.3604 100.734 79.4175 100.512 79.4619 100.301C79.4725 100.251 79.4825 100.196 79.4612 100.149C79.4072 100.028 79.229 100.065 79.1096 100.12C78.7885 100.27 78.4103 100.626 78.6322 100.902Z" fill="white"/>
<path id="Shape_2" fill-rule="evenodd" clip-rule="evenodd" d="M36.6428 82.9276C37.9658 76.384 42.4894 70.9062 48.1062 67.2977C45.2663 71.1907 36.5514 77.5747 39.3526 84.6872C43.8301 96.0563 61.2484 97.8443 60.6425 97.9679C50.3403 100.068 35.6577 87.7996 36.6428 82.9276Z" fill="#E7EAEE"/>
<g id="Food">
<path id="Combined Shape" fill-rule="evenodd" clip-rule="evenodd" d="M69.5962 26.1428C68.8796 26.2298 68.2481 26.8038 68.0934 27.5089C73.8949 24.3896 80.9022 23.5877 87.2585 25.3156C87.2639 28.5212 85.0153 31.6044 81.9614 32.5786L75.3405 34.6908C77.0871 34.8845 78.8817 34.6284 80.5044 33.9539C81.0809 34.8623 82.0306 35.5257 83.0819 35.7545L81.0467 36.2008C81.3467 37.1151 81.9594 37.9236 82.7584 38.4596C82.0804 38.2274 81.3258 38.225 80.6463 38.453L81.1019 40.1077C78.101 39.6915 74.8945 40.1001 72.367 41.7704C69.8394 43.4408 68.1421 46.5113 68.5976 49.5065C69.1306 46.2501 71.3622 43.3202 74.36 41.9411C77.3578 40.5621 81.0347 40.7739 83.8543 42.4881L81.9417 43.9049C82.6763 44.197 83.5467 44.1224 84.2208 43.7094C85.6929 44.3607 85.2853 47.0543 83.6864 47.2409L85.8014 47.3879C86.168 50.9845 83.9463 54.6934 80.6023 56.0672C77.2583 57.441 73.0708 56.3652 70.8031 53.5496C67.9883 54.9871 68.1856 59.3437 70.1917 61.786C71.5922 63.491 73.5207 64.5986 75.4525 65.708L75.4526 65.7081L75.4528 65.7082L75.4529 65.7083L75.4531 65.7084L75.4532 65.7085L75.4534 65.7086L75.4535 65.7087L75.4537 65.7088L75.4538 65.7089L75.454 65.709L75.4541 65.7091L75.4543 65.7091L75.4544 65.7092L75.4546 65.7093L75.4547 65.7094L75.4549 65.7095L75.455 65.7096L75.4552 65.7097L75.4553 65.7098L75.4555 65.7099L75.4556 65.71L75.4558 65.7101L75.4559 65.7102L75.4561 65.7102L75.4562 65.7103L75.4564 65.7104L75.4565 65.7105L75.4567 65.7106L75.4568 65.7107L75.457 65.7108L75.4571 65.7109L75.4572 65.711L75.4574 65.7111L75.4575 65.7112C76.2914 66.19 77.1258 66.6691 77.9183 67.1971C82.1374 70.0073 85.2824 74.3897 86.5942 79.2863C84.3031 80.8204 82.2652 82.7316 80.5873 84.9195C83.0697 84.8037 85.5008 83.7911 87.3313 82.1103L87.7222 85.8914C85.7125 86.5103 83.9067 87.7737 82.6364 89.4494C84.4275 89.6319 86.2745 89.2135 87.8121 88.2771C87.2614 92.6277 86.2674 96.9222 84.8505 101.072L80.2312 101.035C81.3272 98.0059 82.4372 94.7475 81.6298 91.6295C80.8224 88.5115 77.2011 85.9378 74.3507 87.4375C77.6289 84.7953 80.1113 81.1782 81.3979 77.1691L73.1428 87.8249L66.8079 87.8785C66.6087 84.8938 66.4171 81.8347 67.2656 78.9662C68.1141 76.0978 70.2327 73.4125 73.1516 72.7584C73.4684 72.6874 73.8055 72.6297 74.1471 72.5711C75.5738 72.3267 77.0781 72.069 77.497 70.7797C72.7651 70.5045 68.0219 73.5336 66.2814 77.9423C65.0412 81.0839 65.2598 84.5856 65.4973 87.9547C61.1229 87.3238 56.6438 87.4253 52.3024 88.2535C51.5487 85.6844 50.7671 83.0578 49.1862 80.8971C47.6052 78.7364 45.0387 77.0976 42.3747 77.3643C46.665 78.0019 48.7902 82.7693 50.408 86.7937C52.0258 90.8182 54.9625 95.4149 59.2816 95.0167C60.5117 94.9033 60.9033 96.9238 59.9605 97.722C59.0178 98.5203 57.617 98.3682 56.4103 98.1041C50.1943 96.7439 44.3908 93.5521 39.9132 89.0312C39.0413 88.1509 38.1982 87.1877 37.7954 86.016C37.2984 84.5704 37.5299 82.974 37.9573 81.5064C40.1407 74.0085 46.8602 68.8713 53.2459 64.3761C56.6815 61.9577 56.5583 55.9647 53.0262 53.6896C50.4116 56.0655 46.9255 57.7268 43.414 57.3392C39.9024 56.9516 36.5791 54.0765 36.4658 50.5454C37.5687 50.4483 38.6497 50.1097 39.611 49.5603C38.6674 49.2251 37.6041 49.2394 36.6699 49.5999C36.4159 48.6483 36.6014 47.5887 37.1636 46.7799L39.1656 46.566C38.7632 46.1109 38.2018 45.7992 37.6027 45.6982C39.0476 43.2905 42.4012 42.6315 45.0887 43.4451C47.7762 44.2587 49.9527 46.1971 52.035 48.0808C49.8637 43.3203 43.976 41.7858 38.8354 40.8102L41.0786 39.4813C39.7822 39.128 38.352 39.2941 37.1711 39.9351C37.9421 40.8901 38.9827 41.625 40.1406 42.0321C38.2899 44.6664 35.0234 46.2387 31.81 46.0418C28.6507 45.8483 25.4331 46.8156 22.9042 48.7192C27.0138 47.0482 31.5033 46.3196 35.9305 46.6052L35.1946 49.7934C32.639 50.2713 30.2002 51.3625 28.1409 52.9496L35.1013 50.5989C35.7988 54.1647 38.6192 57.2295 42.1148 58.2203C45.6105 59.2111 49.6196 58.082 52.0844 55.4126C54.7003 55.9316 55.328 59.7083 53.898 61.9595C52.7657 63.742 50.9136 64.8523 49.0776 65.953C48.5949 66.2423 48.1133 66.5311 47.6462 66.8312C42.0294 70.4396 37.9659 76.384 36.6429 82.9276C35.3198 89.4712 36.7548 96.5273 40.5286 102.034C34.2955 104.393 30.1514 111.338 31.0353 117.944C31.0555 118.095 31.078 118.247 31.1005 118.4L31.1006 118.4C31.2339 119.304 31.3701 120.226 31.0634 121.075C30.7048 122.067 29.4171 122.802 28.5708 122.172C26.1566 120.374 23.3254 119.14 20.3651 118.596C18.6225 118.275 16.065 118.996 16.4362 120.728C16.56 121.306 17.0149 121.747 17.4564 122.139C22.0379 126.211 27.6181 129.152 33.5672 130.628C34.9135 130.963 36.409 131.206 37.6292 130.546C39.3665 129.607 39.6517 127.502 39.9382 125.387C40.2199 123.308 40.5027 121.22 42.1673 120.222C43.6705 119.32 45.5227 119.825 47.2588 120.299L47.259 120.299L47.2592 120.3C47.491 120.363 47.7207 120.426 47.9472 120.484C52.0754 121.554 56.3566 121.146 60.6396 120.737L60.6397 120.737C62.3303 120.576 64.0212 120.415 65.7031 120.344C70.3697 120.149 75.0654 120.667 79.5774 121.873C81.1489 122.294 82.7113 121.51 84.1993 120.763C84.4203 120.652 84.6397 120.542 84.8573 120.437C86.5392 119.623 88.8442 119.194 90.0441 120.626C90.5186 121.193 90.6938 121.918 90.87 122.648C90.9571 123.009 91.0445 123.37 91.1684 123.714C91.9766 125.956 94.3997 127.33 96.7792 127.463C99.1587 127.596 101.482 126.694 103.562 125.529C107.501 123.323 110.87 120.109 113.26 116.278C113.538 115.832 113.813 115.337 113.757 114.814C113.61 113.433 111.624 113.325 110.299 113.741C106.715 114.866 103.42 116.9 100.808 119.6C99.5802 118.481 98.9825 116.711 99.2803 115.076C106.583 110.026 114.357 104.804 123.213 104.177C124.602 104.078 126.012 104.094 127.42 104.109C130.477 104.142 133.526 104.175 136.33 103.044C141.495 100.96 144.478 93.9117 141.242 89.3785C138.753 85.8909 133.885 85.068 129.618 85.4502C122.404 86.0961 115.461 89.4175 110.431 94.6283C109.034 96.0761 107.759 97.6785 106.486 99.2779L106.486 99.278C103.732 102.739 100.989 106.186 97.0406 108.023C94.3602 104.316 90.1595 101.743 85.6388 101.04C88.9919 94.8536 89.8599 87.3638 88.0108 80.574C86.1618 73.7843 81.6159 67.7689 75.5888 64.1366C75.2603 63.9386 74.9256 63.7457 74.5901 63.5523C73.0723 62.6773 71.5394 61.7937 70.5052 60.4006C69.2425 58.6995 69.1171 55.9054 70.8882 54.743C73.2435 57.9749 78.1861 58.6728 81.6814 56.7297C85.1767 54.7866 87.1673 50.709 87.2378 46.7106L96.2792 46.4805C93.2398 45.4637 89.9198 45.3012 86.7957 46.0162L85.7124 43.0664L92.8864 42.1259C90.2397 41.4593 87.4031 41.5655 84.8136 42.4282C84.2252 41.2758 83.328 40.2828 82.2409 39.581C83.2616 39.6967 84.3217 39.4234 85.1591 38.8286L82.8053 36.9554C83.7804 37.1346 84.8387 36.4954 85.1339 35.549L81.3665 34.0251L96.2382 26.9085C95.6045 26.8974 94.9701 26.9207 94.339 26.9784L96.2614 25.7073C93.3263 26.062 90.4313 25.2359 87.5399 24.4107C84.547 23.5566 81.5579 22.7035 78.5322 23.1626C77.3435 23.3429 76.1474 23.7211 74.958 24.0971C72.5033 24.8731 70.0777 25.6399 67.8069 24.6401C63.1862 22.6056 57.7676 22.4566 53.0421 24.234C52.6242 24.3912 52.1998 24.5629 51.7711 24.7363L51.7711 24.7363L51.771 24.7363C49.4118 25.6907 46.9261 26.6963 44.7223 25.61C42.0701 24.3026 38.8537 25.0673 36.1945 26.3602C35.2609 26.8141 34.3549 27.3304 33.4497 27.8462C31.7762 28.7999 30.1052 29.7521 28.2679 30.3057C32.4142 32.8469 37.1097 34.4869 41.9365 35.0797C42.5294 35.5377 42.3223 36.5562 41.7308 37.0162C41.1394 37.4761 40.3396 37.5344 39.5915 37.5744C39.7841 38.9074 41.5016 39.7516 42.6747 39.0898C42.1817 39.1814 42.1449 38.3806 42.3497 37.9229L43.6277 35.067C44.6202 35.4314 45.8555 34.8467 46.2027 33.848C43.7449 34.1438 41.1947 34.4316 38.8402 33.667C36.4856 32.9023 34.3819 30.7692 34.4923 28.2961C39.7356 25.2582 46.7745 25.6695 51.6283 29.2975C51.2535 28.2037 50.3323 27.3126 49.2267 26.9744C50.5033 25.7177 52.1978 24.8929 53.9745 24.6636C52.9191 25.4987 52.4354 26.9916 52.8006 28.287L57.5395 23.9284C56.7621 25.322 56.3267 26.9048 56.2818 28.4999C58.0394 27.3514 59.4396 25.6642 60.2444 23.725L62.3526 24.021C61.062 25.1114 60.3429 26.8441 60.4823 28.528C62.0886 27.5294 63.334 25.9631 63.9449 24.173C65.9244 24.4928 67.8468 25.1629 69.5962 26.1428ZM127.829 103.301H127.828H127.828H127.828H127.828H127.827H127.827H127.827H127.827H127.827H127.826H127.826H127.826H127.826H127.826H127.825H127.825H127.825H127.825H127.825H127.824H127.824H127.824H127.824H127.824H127.823H127.823H127.823H127.823H127.823H127.822H127.822H127.822H127.822H127.822C126.764 103.266 125.705 103.231 124.654 103.261C116.805 103.484 109.509 107.306 103.034 111.746C102.943 111.809 102.852 111.871 102.761 111.934C101.532 112.779 100.291 113.632 98.8887 114.131L97.2408 109.328C97.1524 109.07 97.0979 108.716 97.3376 108.586C99.8574 107.224 102.158 105.457 104.126 103.375C105.436 101.988 106.599 100.463 107.76 98.9406C109.405 96.7841 111.047 94.6313 113.103 92.8767C116.386 90.0747 120.519 88.4711 124.667 87.275C127.736 86.3898 130.952 85.6954 134.109 86.1816C137.266 86.6678 140.374 88.5519 141.532 91.529C142.451 93.8936 142.001 96.6828 140.585 98.7874C139.168 100.892 136.868 102.324 134.403 102.925C132.26 103.448 130.046 103.375 127.829 103.301ZM37.5278 113.475C37.6937 113.87 37.7984 114.397 37.4671 114.668C37.0404 115.018 36.435 114.567 36.0765 114.148L33.0205 110.577C32.2889 112.479 31.9532 114.532 32.0411 116.568C32.0588 116.977 32.0921 117.391 32.1255 117.807C32.2532 119.398 32.3827 121.009 31.6462 122.388C31.3231 122.993 30.7734 123.548 30.0891 123.592C29.7013 123.618 29.3236 123.476 28.9656 123.324C27.9845 122.909 27.0177 122.399 26.0512 121.89C23.5634 120.577 21.0775 119.266 18.3533 119.579C17.9812 119.622 17.518 119.805 17.5325 120.179C17.539 120.347 17.6483 120.491 17.7546 120.621C21.6823 125.418 27.8243 127.744 33.77 129.5C34.7424 129.787 35.7673 130.067 36.7575 129.849C37.7477 129.631 38.6668 128.738 38.5473 127.731C38.2309 125.067 39.0656 122.286 40.7966 120.237C41.4877 119.418 42.3614 118.69 43.41 118.473C44.698 118.205 45.9568 118.736 47.1964 119.258C47.5149 119.392 47.8322 119.526 48.1483 119.646C50.5716 120.562 53.2955 120.662 55.7794 119.926C54.8083 119.913 54.3419 118.749 54.1406 117.799C52.8366 111.643 52.1434 105.359 52.0743 99.067C52.0668 98.3829 51.5869 97.778 51.0081 97.4133C50.5181 97.1046 49.9595 96.9328 49.4039 96.762L49.4038 96.762L49.4017 96.7614L49.4001 96.7608C49.3006 96.7303 49.2012 96.6997 49.1024 96.6684C47.0793 96.0275 45.173 95.02 43.5039 93.7095C43.2936 93.5444 43.0864 93.3741 42.8792 93.2038C42.2403 92.6787 41.601 92.1533 40.8676 91.777C39.8963 91.2786 38.6943 91.0754 37.7208 91.5695C37.5037 92.087 37.8963 92.6882 38.3988 92.938C38.7793 93.1273 39.2056 93.1786 39.6309 93.2298H39.631L39.6313 93.2298L39.6316 93.2299L39.6319 93.2299L39.6321 93.23L39.6324 93.23L39.6327 93.2301L39.633 93.2301L39.6333 93.2301L39.6336 93.2302L39.6339 93.2302L39.6341 93.2303L39.6344 93.2303L39.6347 93.2304L39.635 93.2304L39.6353 93.2305L39.6356 93.2305L39.6359 93.2306L39.6361 93.2306L39.6364 93.2307L39.6367 93.2307L39.637 93.2307L39.6373 93.2308L39.6376 93.2308L39.6379 93.2309L39.6381 93.2309L39.6384 93.231L39.6387 93.231L39.639 93.2311L39.6393 93.2311L39.6396 93.2312L39.6399 93.2312L39.6402 93.2312L39.6404 93.2313C39.7736 93.2472 39.9066 93.2631 40.038 93.2835C40.6777 93.3829 41.3004 93.5913 41.8712 93.8969C42.4708 94.218 43.0386 95.0658 42.5043 95.4866C42.2852 95.6592 41.978 95.6471 41.6999 95.6266L38.562 95.3961C39.3269 97.4773 40.3022 99.4811 41.4681 101.367C41.5727 101.536 41.7124 101.725 41.9115 101.726C44.9858 101.754 48.4187 102.185 50.3669 104.563C50.7362 105.014 51.0391 105.665 50.7225 106.154C48.9367 103.998 46.1433 102.714 43.3439 102.762C40.5445 102.81 37.7971 104.19 36.0869 106.407C37.5964 107.417 38.7964 108.884 39.4882 110.563C39.6972 111.071 39.6587 111.9 39.1102 111.889L35.8162 107.856C35.669 107.675 35.4922 107.48 35.2596 107.473C35.0731 107.467 34.9087 107.586 34.7607 107.7C34.4403 107.946 34.1078 108.207 33.9405 108.575C33.7733 108.943 33.8355 109.449 34.1839 109.654C35.6688 110.526 36.8605 111.888 37.5278 113.475ZM75.0816 119.787C77.197 118.023 77.887 115.117 78.455 112.421L80.5366 102.544C80.5588 102.439 80.5843 102.327 80.6603 102.25C80.7605 102.149 80.9177 102.138 81.06 102.134C84.8543 102.019 88.8939 102.381 91.95 104.632C90.7029 105.251 89.6129 106.182 88.8083 107.318C88.5825 107.637 88.394 108.116 88.6846 108.377C88.7936 108.475 88.9454 108.509 89.0915 108.52C89.82 108.571 90.4854 108.116 91.0178 107.616C91.1325 107.509 91.2452 107.397 91.358 107.286C91.7686 106.879 92.1809 106.472 92.7019 106.233C93.3659 105.929 94.2884 106.014 94.6548 106.646C93.4705 107.249 92.4946 108.253 91.9247 109.454C91.7763 109.766 91.6538 110.128 91.7739 110.452C91.8941 110.777 92.3669 110.967 92.5992 110.711L94.8874 108.185C94.9981 108.062 95.1518 107.928 95.3067 107.985C95.3903 108.015 95.4448 108.094 95.4927 108.169C96.7053 110.072 97.1873 112.288 97.6714 114.513C97.9549 115.816 98.239 117.122 98.671 118.371C99.0172 119.371 99.6854 120.495 100.744 120.496C101.329 120.496 101.847 120.136 102.31 119.779C102.805 119.397 103.297 118.996 103.792 118.593C106.119 116.7 108.499 114.763 111.43 114.531C111.892 114.494 112.485 114.596 112.593 115.047C112.656 115.308 112.515 115.572 112.375 115.801C110.196 119.367 106.929 122.178 103.319 124.283C101.471 125.36 99.4446 126.286 97.3054 126.302C95.1662 126.319 92.9011 125.225 92.0927 123.244C91.9278 122.84 91.827 122.414 91.7262 121.988C91.6096 121.495 91.4932 121.002 91.278 120.546C90.7233 119.369 89.4939 118.541 88.1952 118.469C86.9586 118.401 85.8214 118.952 84.6867 119.501L84.6864 119.502C84.2879 119.695 83.8897 119.887 83.4875 120.053C80.8171 121.155 77.677 121.055 75.0816 119.787ZM60.9612 98.5229C60.165 99.2024 59.0939 99.4737 58.05 99.5503C56.1692 99.6883 54.2498 99.248 52.6172 98.304L53.2908 100.854C53.3199 100.964 53.3545 101.082 53.4457 101.15C53.525 101.208 53.6299 101.216 53.7284 101.221L63.4078 101.73C64.8189 101.804 66.2319 101.878 67.6443 101.837C71.6062 101.723 75.5385 100.688 79.044 98.8389C79.2462 98.7322 79.4523 98.6186 79.5979 98.4423C79.7715 98.2322 79.8401 97.9569 79.8982 97.6906C80.3891 95.4386 80.474 93.0987 80.1476 90.817C80.0674 90.2565 79.9557 89.6818 79.6406 89.2114C79.3256 88.741 78.759 88.3972 78.2028 88.5031C72.5064 89.5878 66.6915 89.2527 60.8771 88.9177C58.6857 88.7914 56.4943 88.6652 54.3094 88.6149C53.9193 88.6059 53.509 88.6041 53.1664 88.7907C52.8237 88.9773 52.5878 89.4204 52.7638 89.7686C53.7602 91.7397 55.8187 92.9977 57.9532 93.5651C58.1059 93.6057 58.2622 93.6454 58.4204 93.6857L58.4215 93.686L58.4222 93.6861C59.8029 94.0373 61.3234 94.4241 61.8248 95.7093C62.2052 96.6844 61.7574 97.8435 60.9612 98.5229ZM76.491 115.229C76.1005 116.78 75.2797 118.388 73.7904 118.969C73.2694 119.173 72.7053 119.233 72.1484 119.285C66.9851 119.766 61.7665 119.65 56.6295 118.941C56.3236 118.899 56.0012 118.847 55.7628 118.651C55.4725 118.412 55.3741 118.016 55.298 117.648C55.0647 116.519 54.884 115.38 54.7566 114.234C54.734 114.031 54.7903 113.742 54.9938 113.758C58.2809 114.013 61.5775 114.148 64.8745 114.16C67.1488 114.169 69.4412 114.118 71.6624 113.629C73.8837 113.141 76.0494 112.186 77.6733 110.593C77.2116 111.563 77.0129 112.622 76.8139 113.683L76.8139 113.683L76.8139 113.683L76.8138 113.683L76.8138 113.683L76.8138 113.683L76.8138 113.683L76.8137 113.683L76.8137 113.683L76.8137 113.683L76.8137 113.683L76.8136 113.684L76.8136 113.684L76.8136 113.684L76.8136 113.684L76.8136 113.684L76.8135 113.684L76.8135 113.684L76.8135 113.684L76.8135 113.684L76.8134 113.684L76.8134 113.684L76.8134 113.685L76.8134 113.685L76.8133 113.685L76.8133 113.685L76.8133 113.685L76.8133 113.685L76.8132 113.686C76.7161 114.203 76.619 114.721 76.491 115.229ZM65.3858 108.791C65.1751 108.996 64.9484 109.24 64.9632 109.534C64.9781 109.827 65.4188 110.047 65.5708 109.795C66.4004 108.42 67.8432 107.432 69.4246 107.155C71.0059 106.879 72.6986 107.318 73.9457 108.329C74.0753 108.434 74.2007 108.545 74.3261 108.656C74.6218 108.918 74.9173 109.18 75.2664 109.361C75.4454 109.454 75.7516 109.456 75.7591 109.255C75.7615 109.189 75.7236 109.128 75.6865 109.074C74.7909 107.754 73.4518 106.74 71.938 106.237C70.6111 105.796 69.0736 105.769 67.8869 106.508C67.4559 106.776 67.0884 107.134 66.7245 107.488L65.3858 108.791ZM54.2395 108.04C55.3835 106.739 57.2331 106.162 58.951 106.389C60.669 106.616 62.2403 107.584 63.3817 108.888C63.5828 109.118 63.78 109.448 63.617 109.706C63.4805 109.922 63.154 109.938 62.9298 109.815C62.7341 109.708 62.5945 109.527 62.4571 109.349L62.4352 109.321L62.3968 109.272C61.3863 107.986 59.7354 107.232 58.1022 107.309C56.469 107.386 54.8964 108.293 54.0115 109.667C53.781 109.467 53.7158 109.123 53.7852 108.825C53.8546 108.528 54.0378 108.27 54.2395 108.04ZM71.069 104.63C71.0424 104.921 71.4261 105.102 71.7019 105.007C71.9501 104.921 72.123 104.707 72.2897 104.5C72.3082 104.477 72.3267 104.454 72.3451 104.432C73.8809 102.553 76.8053 101.987 78.9309 103.157C79.2097 102.922 79.2256 102.47 79.039 102.157C78.8525 101.843 78.5118 101.65 78.1642 101.539C77.4113 101.299 76.5938 101.381 75.819 101.537C73.9854 101.908 72.1331 102.778 71.1691 104.381C71.1225 104.458 71.0772 104.54 71.069 104.63ZM61.6634 111.246C62.3688 110.976 63.1065 110.777 63.86 110.724C65.7245 110.595 67.6301 111.432 68.7956 112.893C68.299 113.248 67.6452 112.816 67.135 112.479L67.13 112.476C65.5016 111.401 63.2767 111.304 61.5615 112.235C61.4277 112.308 61.2927 112.387 61.1566 112.467C60.515 112.842 59.848 113.233 59.1575 113.037C59.7283 112.163 60.6883 111.619 61.6634 111.246ZM66.9561 110.253C67.2485 110.101 67.5109 109.9 67.7733 109.699L67.7734 109.699C68.024 109.507 68.2747 109.315 68.5517 109.165C69.3326 108.743 70.3053 108.694 71.1245 109.036C71.3635 109.136 71.5878 109.266 71.8121 109.396C72.0054 109.508 72.1986 109.62 72.4015 109.713C72.8398 109.914 73.3618 110.018 73.7985 109.814C73.847 109.791 73.8971 109.761 73.9176 109.712C73.9508 109.631 73.8918 109.545 73.8345 109.479C72.8574 108.364 71.3263 107.76 69.8507 107.907C68.3752 108.054 66.9937 108.949 66.2563 110.236C66.4102 110.439 66.7305 110.371 66.9561 110.253ZM56.0335 109.903C55.8671 110.05 55.701 110.197 55.5085 110.306C55.2023 110.481 54.79 110.539 54.513 110.321C54.4273 109.861 54.892 109.503 55.2966 109.267C56.2944 108.685 57.3668 108.083 58.5205 108.143C59.4434 108.19 60.2859 108.658 61.0831 109.125C61.2791 109.24 61.4802 109.361 61.6141 109.544C61.7481 109.728 61.7983 109.992 61.6732 110.182C61.5466 110.373 61.2802 110.43 61.0565 110.378C60.8412 110.328 60.6548 110.198 60.4729 110.072L60.4728 110.072L60.4517 110.057C59.8067 109.609 59.1035 109.197 58.3236 109.106C57.6238 109.025 56.8943 109.222 56.3344 109.649C56.2303 109.729 56.1319 109.816 56.0335 109.903ZM60.7044 105.834C60.9126 106.104 61.3205 105.815 61.5504 105.564C62.2587 104.79 63.2796 104.311 64.3275 104.26C65.3754 104.21 66.4376 104.589 67.2167 105.292L67.2646 105.335C67.4471 105.501 67.6419 105.679 67.885 105.685C68.1495 105.692 68.3879 105.323 68.1781 105.162C67.0548 104.299 65.7478 103.594 64.3344 103.501C62.9209 103.407 61.3976 104.042 60.7432 105.298C60.6555 105.466 60.5883 105.684 60.7044 105.834ZM73.6046 105.28C73.4834 105.404 73.3606 105.531 73.2017 105.598C73.0151 105.677 72.7589 105.639 72.6688 105.458C72.5736 105.266 72.7066 105.042 72.8451 104.879C74.2053 103.279 76.7656 102.864 78.5616 103.953C78.8367 104.12 79.1251 104.444 78.9633 104.722C78.7692 105.055 78.267 104.842 77.933 104.649C76.5977 103.876 74.7553 104.121 73.6677 105.215L73.6469 105.236L73.6046 105.28ZM74.1945 105.701C74.1174 105.765 74.0404 105.838 74.0079 105.933C73.9171 106.199 74.2403 106.448 74.5204 106.425C74.7231 106.409 74.9038 106.31 75.0846 106.212C75.1535 106.174 75.2225 106.136 75.2927 106.103C75.9123 105.811 76.6569 105.881 77.2858 106.152L77.3203 106.167L77.3445 106.178L77.3997 106.203L77.4637 106.233L77.4638 106.233C77.6517 106.321 77.8399 106.408 78.0437 106.439C78.3117 106.479 78.6244 106.39 78.7464 106.148C77.6806 104.827 75.4972 104.613 74.1945 105.701ZM57.8212 105.111C57.7188 105.254 57.5018 105.269 57.3428 105.194C57.195 105.125 57.0842 104.998 56.976 104.875L56.9513 104.847C56.2042 104 55.2362 103.349 54.1696 102.977C53.8925 102.881 53.5405 102.688 53.6184 102.406C54.3842 102.144 55.2501 102.349 55.9377 102.776C56.6252 103.203 57.1633 103.829 57.6635 104.465C57.8113 104.653 57.9604 104.917 57.8212 105.111ZM66.7684 105.904C65.5097 105.101 63.7915 105.087 62.5198 105.869C62.2988 106.005 62.0716 106.196 62.0545 106.455C62.0373 106.713 62.3889 106.954 62.5632 106.762C63.2658 105.987 64.5495 105.826 65.4212 106.404C65.8493 106.687 66.464 106.649 66.8531 106.314C67.0368 106.295 66.9241 106.003 66.7684 105.904ZM71.174 112.415C72.4722 111.179 74.1364 110.126 75.925 110.247C76.1089 110.26 76.3556 110.414 76.2445 110.561L71.8092 112.481C71.5908 112.575 71.2684 112.633 71.174 112.415ZM59.0336 111.122L59.0337 111.122C59.2098 111.229 59.3885 111.338 59.5912 111.338C59.844 111.338 60.0947 111.034 59.9343 110.839C59.4293 110.223 58.6355 109.855 57.8393 109.867C57.043 109.879 56.2609 110.271 55.7749 110.902C55.8348 111.131 56.1154 111.237 56.3499 111.203C56.5189 111.178 56.6734 111.103 56.828 111.027C56.8878 110.998 56.9477 110.969 57.0084 110.942C57.6099 110.682 58.3327 110.72 58.903 111.044C58.9464 111.068 58.9896 111.095 59.0329 111.121L59.033 111.121L59.0331 111.121L59.0332 111.121L59.0333 111.121L59.0335 111.121L59.0336 111.122ZM68.1283 111.177C67.9514 111.186 67.7518 111.052 67.7719 110.876C67.7793 110.811 67.8146 110.752 67.852 110.699C68.262 110.109 69.0031 109.808 69.7213 109.801C70.4395 109.794 71.1375 110.049 71.7716 110.386C71.9485 110.48 72.1476 110.63 72.119 110.829C71.8251 111.141 71.3385 110.973 70.9143 110.827C70.8672 110.811 70.8209 110.795 70.7757 110.78C70.0698 110.546 69.2674 110.619 68.6159 110.978C68.5935 110.99 68.5711 111.003 68.5486 111.016C68.4154 111.092 68.2797 111.169 68.1283 111.177ZM66.4369 103.148C67.1762 103.413 67.8648 103.818 68.4547 104.337C68.4733 104.353 68.4917 104.369 68.5101 104.386L68.5773 104.446L68.5776 104.446C68.7784 104.627 68.9806 104.81 69.2257 104.92C69.5208 105.054 69.9037 105.057 70.1346 104.83C69.6237 104.438 69.204 103.928 68.9178 103.351C68.7636 103.041 68.3526 102.984 68.0061 102.967L66.4871 102.893C66.4337 102.965 66.4147 103.061 66.4369 103.148ZM60.2466 104.451C60.1166 104.617 59.9866 104.782 59.8329 104.926C59.5715 105.17 59.2109 105.349 58.8616 105.272C59.2166 104.411 59.7902 103.641 60.5138 103.055C61.0304 102.636 61.7778 102.728 62.4329 102.842C62.4678 103.079 62.1638 103.197 61.9326 103.259C61.3966 103.402 60.9033 103.701 60.5288 104.11C60.4292 104.219 60.3379 104.335 60.2466 104.451ZM54.0099 104.629L55.4183 105.547C55.617 105.676 55.8708 105.809 56.0769 105.692C56.2683 105.583 56.2975 105.302 56.1978 105.106C56.0981 104.91 55.9079 104.779 55.7253 104.656L54.5787 103.884C54.2586 103.668 53.7372 103.496 53.563 103.841C53.4129 104.137 53.7311 104.448 54.0099 104.629ZM64.554 108.568C64.3258 108.677 64.0741 108.485 63.8945 108.306L63.3082 107.725C63.2393 107.656 63.1649 107.573 63.1769 107.477C63.1844 107.416 63.2257 107.365 63.2679 107.321C63.8185 106.745 64.8645 106.761 65.3974 107.353L64.7868 108.318C64.7251 108.416 64.6581 108.518 64.554 108.568ZM55.6793 112.906C56.061 113.04 56.5116 113.08 56.8484 112.855C56.3415 112.272 55.7473 111.765 55.0919 111.356C54.906 111.24 54.6963 111.128 54.4794 111.159C54.2624 111.19 54.0703 111.437 54.1754 111.629C54.4979 112.219 55.0445 112.683 55.6793 112.906ZM77.167 107.566L76.6256 108.22C76.5743 108.282 76.517 108.348 76.4383 108.365C76.3193 108.391 76.2108 108.297 76.1252 108.21L75.3395 107.414C75.2239 107.297 75.257 107.088 75.3718 106.97C75.4867 106.852 75.6568 106.808 75.8201 106.788C76.2472 106.737 76.6899 106.825 77.0649 107.035C77.1727 107.096 77.2859 107.185 77.2909 107.309C77.2947 107.406 77.2291 107.491 77.167 107.566ZM57.7987 103.51C57.9605 103.684 58.1638 103.863 58.4008 103.843C58.6464 103.823 58.8115 103.607 58.9739 103.396C59.1476 103.169 59.3181 102.947 59.5805 102.972C59.7168 102.747 59.3448 102.568 59.0821 102.563L57.0422 102.531C57.2642 102.879 57.5177 103.207 57.7987 103.51ZM66.2414 113.049L61.9981 113.067C62.0441 112.847 62.2914 112.742 62.508 112.683C63.4754 112.421 64.5047 112.39 65.4862 112.593C65.7856 112.655 66.1174 112.769 66.2414 113.049ZM70.7315 111.579L69.3275 111.642C69.1765 111.649 68.9826 111.693 68.9639 111.843C68.9556 111.91 68.9893 111.974 69.0219 112.033C69.1456 112.258 69.2773 112.492 69.4913 112.633C69.7052 112.775 70.0272 112.789 70.1937 112.594C70.251 112.526 70.2846 112.442 70.318 112.359C70.359 112.256 70.3996 112.155 70.4835 112.086C70.5391 112.04 70.6068 112.016 70.6749 111.991C70.7269 111.972 70.779 111.953 70.826 111.924C70.9344 111.858 71.0035 111.688 70.9029 111.611C70.8558 111.575 70.7909 111.576 70.7315 111.579ZM58.4258 111.765C58.6207 111.89 58.7389 112.166 58.6139 112.361C58.4642 112.595 58.2773 112.853 58.0012 112.88C57.6449 112.915 57.3897 112.556 57.2163 112.243C57.1572 112.137 57.0961 112.019 57.118 111.899C57.1638 111.647 57.5004 111.6 57.7561 111.613C57.9875 111.624 58.231 111.639 58.4258 111.765ZM77.1009 109.555C77.3109 109.572 77.4992 109.43 77.6465 109.279C78.096 108.82 78.3818 108.203 78.4422 107.563C78.2935 107.468 78.1115 107.616 77.9976 107.751L76.8495 109.108C76.7135 109.269 76.8909 109.538 77.1009 109.555ZM54.6164 106.537C54.3157 106.7 53.904 106.616 53.6906 106.349C53.4772 106.082 53.4864 105.662 53.7113 105.405C53.7425 105.369 53.7798 105.335 53.8262 105.325C53.8936 105.311 53.9589 105.352 54.0158 105.391L54.574 105.771C54.7029 105.859 54.8426 105.963 54.8698 106.117C54.9004 106.289 54.7704 106.454 54.6164 106.537ZM70.2182 103.53C70.4417 103.718 70.7729 103.524 70.9947 103.335L71.7166 102.718C71.5804 102.588 71.3628 102.617 71.1783 102.655L69.5709 102.987L70.2182 103.53ZM37.7221 89.3926C37.558 89.2467 37.5159 89.0081 37.511 88.7885C37.5054 88.5407 37.5345 88.2921 37.597 88.0523L38.6624 89.4393C38.726 89.522 38.7782 89.6644 38.6842 89.7098C38.551 89.6205 38.3873 89.5951 38.2246 89.5699C38.0405 89.5415 37.8577 89.5132 37.7221 89.3926ZM78.6322 100.902C78.7671 101.07 79.0511 101.034 79.2058 100.884C79.3604 100.734 79.4175 100.512 79.4619 100.301C79.4725 100.251 79.4825 100.196 79.4612 100.149C79.4072 100.028 79.229 100.065 79.1096 100.12C78.7885 100.27 78.4103 100.626 78.6322 100.902ZM66.5757 39.5787C66.7061 39.2531 67.0096 39.0331 67.3085 38.8495C68.2106 38.2955 69.2123 37.9042 70.251 37.7002C70.4996 37.6514 70.7957 37.6275 70.9683 37.813C71.1624 38.0217 71.0653 38.3825 70.8499 38.569C70.6579 38.7352 70.4053 38.8034 70.1582 38.87L70.1581 38.8701L70.158 38.8701L70.1579 38.8701C70.1278 38.8783 70.0977 38.8864 70.0678 38.8947C69.2371 39.1247 68.4555 39.5309 67.7898 40.0786C67.5339 40.2891 67.2306 40.5371 66.9113 40.4484C66.5733 40.3545 66.4453 39.9044 66.5757 39.5787ZM47.8902 39.6548C47.649 39.5243 47.4862 39.1984 47.6362 38.9689C47.7235 38.8354 47.8863 38.7745 48.0409 38.7353C49.2933 38.4174 50.59 38.9786 51.7228 39.6002C51.9778 39.7401 52.2403 39.8925 52.4011 40.1349C52.5618 40.3773 52.5853 40.7365 52.3756 40.9381C52.0245 41.2754 51.4679 40.9284 51.0716 40.6457C50.3775 40.1505 49.5436 39.8538 48.6928 39.7992C48.6548 39.7968 48.6165 39.7947 48.5782 39.7927C48.3401 39.7801 48.0979 39.7672 47.8902 39.6548ZM61.0195 57.6112L60.1957 55.2616C59.4625 55.7908 58.9143 56.5714 58.6655 57.4408C58.4404 57.2577 58.4321 56.9482 58.424 56.6443V56.6442C58.4215 56.5534 58.4191 56.463 58.4109 56.3767C58.3622 55.8645 58.0405 55.3863 57.5845 55.1481C57.1284 54.91 56.5521 54.9193 56.104 55.1721C56.2228 55.4322 56.5029 55.5148 56.7912 55.5998C56.9826 55.6562 57.1777 55.7137 57.3316 55.825C57.6566 56.0601 57.7498 56.503 57.7548 56.9041C57.7561 57.0047 57.7535 57.1061 57.7509 57.2075C57.7432 57.5104 57.7354 57.8139 57.8301 58.0992C57.8607 58.1913 57.904 58.2831 57.9786 58.3452C58.1899 58.521 58.5099 58.3749 58.7239 58.2024C59.2073 57.8126 59.5875 57.2959 59.8157 56.7183C60.0169 56.9194 60.0913 57.2018 60.1651 57.4819C60.1867 57.5642 60.2083 57.6463 60.2331 57.726C60.3422 58.0775 60.6031 58.4531 60.9706 58.4361C61.2156 58.4247 61.4131 58.2403 61.5865 58.067L62.5832 57.0714C62.7033 56.9514 62.8336 56.7988 62.7949 56.6335C62.7578 56.4747 62.5697 56.3897 62.4083 56.4125C62.2469 56.4354 62.1089 56.5371 61.9826 56.6401C61.6287 56.9288 61.3053 57.2549 61.0195 57.6112ZM58.7428 48.1865C58.796 47.7558 58.8252 47.2541 58.5088 46.9572C57.9185 46.4031 57.4014 45.771 56.9754 45.0825C56.7896 44.7822 56.6152 44.4314 56.7037 44.0896C56.8375 43.5733 57.4651 43.3866 57.9945 43.3222C58.8415 43.219 59.6989 43.2015 60.5494 43.27C60.9148 43.2994 61.3022 43.3543 61.5819 43.5914C61.8616 43.8284 61.9625 44.3091 61.6926 44.5572C60.3693 45.7736 59.5945 47.5655 59.6145 49.3628C60.1052 49.6813 60.6039 50.0036 61.1629 50.1759C61.7219 50.3481 62.359 50.3538 62.8632 50.0573C63.0755 49.9324 63.2537 49.7615 63.4321 49.5903C63.5554 49.4721 63.6788 49.3538 63.8138 49.2502C64.1442 48.9968 64.6172 48.8398 64.9713 49.059L63.6242 50.2993C63.0874 50.7935 62.4206 51.3252 61.7102 51.1588C61.4748 51.1037 61.2682 50.9764 61.0609 50.8487C60.9375 50.7726 60.8138 50.6965 60.6837 50.6352C59.9879 50.3078 59.1716 50.4302 58.4198 50.5915L58.2821 50.6213C57.5726 50.775 56.8383 50.9341 56.1419 50.7431C55.4004 50.5396 54.7499 49.7688 54.982 49.0357C55.4488 49.719 56.2616 50.152 57.0891 50.1584C57.4068 50.1608 57.7344 50.1 57.9977 49.922C58.5365 49.5578 58.6631 48.832 58.7428 48.1865Z" fill="#00160A"/>
</g>
</g>
</g>
</svg>
